<svg xmlns="http://www.w3.org/2000/svg" width="143.333" height="46.99" viewBox="0 0 143.333 46.99">
  <g id="Grupo_348" data-name="Grupo 348" transform="translate(-334.844 -75.572)">
    <g id="Grupo_180" data-name="Grupo 180" transform="translate(334.844 75.572)">
      <path id="Caminho_12" data-name="Caminho 12" d="M379.5,79.686a24.689,24.689,0,0,0-13.131-4.111c-4.752-.066-8.934,1.258-12.114,4.418a18.4,18.4,0,0,0-5,10.089A29.492,29.492,0,0,0,340.5,93.6c-3.382,2.134-5.381,4.8-5.632,7.506-.231,2.49.978,4.836,3.5,6.782a22.768,22.768,0,0,0,9.855,3.932.76.76,0,0,0,.245,0,.7.7,0,0,0,.561-.405.543.543,0,0,0-.345-.717c-4.948-1.885-7.714-5.017-7.4-8.382.29-3.133,3.2-6.09,7.6-8.155a31.38,31.38,0,0,0,1.681,10.184,46.426,46.426,0,0,0,5.7,11.06c1.719,2.573,4.091,5.6,5.916,6.8a.654.654,0,0,0,.32.12.614.614,0,0,0,.525-.259.8.8,0,0,0-.016-.971q-.192-.233-.382-.469c-5.382-6.722-6.888-16.1-6.453-23.759a23.093,23.093,0,0,1,.859-5.135c.229-.037.458-.072.689-.106a37.406,37.406,0,0,1,4.365-.349,33.356,33.356,0,0,1,7.913.744.813.813,0,0,0,.3.007.639.639,0,0,0,.574-.673.583.583,0,0,0-.428-.461,34.312,34.312,0,0,0-12.395-1.909,16.349,16.349,0,0,1,3.287-4.724,13.94,13.94,0,0,1,10.8-4.228,29.934,29.934,0,0,1,6.865,1,.62.62,0,0,0,.173.03.693.693,0,0,0,.658-.693A.737.737,0,0,0,379.5,79.686Z" transform="translate(-334.844 -75.572)" fill="#d60014"/>
      <g id="Grupo_179" data-name="Grupo 179" transform="translate(1.089 2.229)">
        <path id="Caminho_13" data-name="Caminho 13" d="M345.747,83.089a4.8,4.8,0,1,1-4.755-4.839A4.8,4.8,0,0,1,345.747,83.089Z" transform="translate(-336.153 -78.25)" fill="#d70012" fill-rule="evenodd"/>
      </g>
    </g>
    <g id="Grupo_181" data-name="Grupo 181" transform="translate(380.788 117.494)">
      <path id="Caminho_14" data-name="Caminho 14" d="M393.954,126v.757h-1.492v4.2h-.923v-4.2h-1.5V126Z" transform="translate(-390.041 -125.948)" fill="#43403e"/>
      <path id="Caminho_15" data-name="Caminho 15" d="M405.494,126v.733h-2.2v1.375h1.732v.71H403.3v1.4h2.2v.737h-3.127V126Z" transform="translate(-392.107 -125.948)" fill="#43403e"/>
      <path id="Caminho_16" data-name="Caminho 16" d="M417.355,129.781a.171.171,0,0,1,.13.058l.364.395a2.008,2.008,0,0,1-.742.573,2.561,2.561,0,0,1-1.058.2,2.505,2.505,0,0,1-.993-.189,2.195,2.195,0,0,1-.752-.524,2.308,2.308,0,0,1-.478-.8,3,3,0,0,1-.167-1.019,2.753,2.753,0,0,1,.185-1.024,2.352,2.352,0,0,1,.521-.8,2.38,2.38,0,0,1,.8-.524,2.778,2.778,0,0,1,1.035-.186,2.446,2.446,0,0,1,.965.176,2.269,2.269,0,0,1,.708.468l-.309.429a.289.289,0,0,1-.07.072.2.2,0,0,1-.118.031.271.271,0,0,1-.161-.062,2.015,2.015,0,0,0-.209-.134,1.735,1.735,0,0,0-.32-.133,1.839,1.839,0,0,0-1.135.06,1.416,1.416,0,0,0-.5.348,1.609,1.609,0,0,0-.329.55,2.1,2.1,0,0,0-.118.728,2.167,2.167,0,0,0,.118.744,1.646,1.646,0,0,0,.32.549,1.363,1.363,0,0,0,.477.34,1.468,1.468,0,0,0,.589.119,2.635,2.635,0,0,0,.341-.021,1.452,1.452,0,0,0,.281-.066,1.161,1.161,0,0,0,.243-.115,1.408,1.408,0,0,0,.228-.173.359.359,0,0,1,.072-.049A.182.182,0,0,1,417.355,129.781Z" transform="translate(-394 -125.937)" fill="#43403e"/>
      <path id="Caminho_17" data-name="Caminho 17" d="M427.036,126.008a.226.226,0,0,1,.074.021.25.25,0,0,1,.063.044.782.782,0,0,1,.068.077l2.6,3.316c-.009-.081-.015-.158-.018-.236s-.005-.147-.005-.214V126h.812v4.958h-.477a.425.425,0,0,1-.181-.034.405.405,0,0,1-.141-.124l-2.593-3.3c.008.073.012.146.016.218s.005.137.005.2v3.045h-.812V126h.484A.87.87,0,0,1,427.036,126.008Z" transform="translate(-396.145 -125.948)" fill="#43403e"/>
      <path id="Caminho_18" data-name="Caminho 18" d="M444.3,128.471a2.743,2.743,0,0,1-.181,1.01,2.382,2.382,0,0,1-.511.8,2.316,2.316,0,0,1-.792.529,2.858,2.858,0,0,1-2.053,0,2.322,2.322,0,0,1-.795-.529,2.362,2.362,0,0,1-.513-.8,2.889,2.889,0,0,1,0-2.02,2.362,2.362,0,0,1,.513-.8,2.311,2.311,0,0,1,.795-.529,2.681,2.681,0,0,1,1.027-.191,2.648,2.648,0,0,1,1.025.192,2.314,2.314,0,0,1,1.3,1.332A2.741,2.741,0,0,1,444.3,128.471Zm-.946,0a2.32,2.32,0,0,0-.108-.732,1.55,1.55,0,0,0-.31-.55,1.339,1.339,0,0,0-.492-.347,1.845,1.845,0,0,0-1.308,0,1.352,1.352,0,0,0-.5.347,1.555,1.555,0,0,0-.314.55,2.493,2.493,0,0,0,0,1.464,1.548,1.548,0,0,0,.314.549,1.356,1.356,0,0,0,.5.345,1.846,1.846,0,0,0,1.308,0,1.343,1.343,0,0,0,.492-.345,1.543,1.543,0,0,0,.31-.549A2.326,2.326,0,0,0,443.355,128.471Z" transform="translate(-398.294 -125.937)" fill="#43403e"/>
      <path id="Caminho_19" data-name="Caminho 19" d="M454.03,130.2h1.985v.762h-2.907V126h.922Z" transform="translate(-400.614 -125.948)" fill="#43403e"/>
      <path id="Caminho_20" data-name="Caminho 20" d="M468.66,128.471a2.742,2.742,0,0,1-.182,1.01,2.394,2.394,0,0,1-.51.8,2.32,2.32,0,0,1-.792.529,2.858,2.858,0,0,1-2.053,0,2.331,2.331,0,0,1-.795-.529,2.375,2.375,0,0,1-.513-.8,2.889,2.889,0,0,1,0-2.02,2.375,2.375,0,0,1,.513-.8,2.319,2.319,0,0,1,.795-.529,2.681,2.681,0,0,1,1.027-.191,2.648,2.648,0,0,1,1.025.192,2.308,2.308,0,0,1,1.3,1.332A2.741,2.741,0,0,1,468.66,128.471Zm-.946,0a2.3,2.3,0,0,0-.108-.732,1.537,1.537,0,0,0-.31-.55,1.339,1.339,0,0,0-.492-.347,1.845,1.845,0,0,0-1.308,0,1.351,1.351,0,0,0-.5.347,1.556,1.556,0,0,0-.314.55,2.493,2.493,0,0,0,0,1.464,1.548,1.548,0,0,0,.314.549,1.355,1.355,0,0,0,.5.345,1.846,1.846,0,0,0,1.308,0,1.343,1.343,0,0,0,.492-.345,1.529,1.529,0,0,0,.31-.549A2.3,2.3,0,0,0,467.714,128.471Z" transform="translate(-402.378 -125.937)" fill="#43403e"/>
      <path id="Caminho_21" data-name="Caminho 21" d="M479.685,130.271a2.16,2.16,0,0,0,.985-.212v-.9h-.621a.2.2,0,0,1-.141-.049.165.165,0,0,1-.052-.122v-.521h1.65v2.006a2.734,2.734,0,0,1-.393.238,2.5,2.5,0,0,1-.435.166,3.474,3.474,0,0,1-.5.1,4.688,4.688,0,0,1-.569.032,2.587,2.587,0,0,1-1-.189,2.339,2.339,0,0,1-1.308-1.327,2.73,2.73,0,0,1-.186-1.019,2.79,2.79,0,0,1,.181-1.025,2.262,2.262,0,0,1,1.327-1.324,2.944,2.944,0,0,1,1.07-.185,2.788,2.788,0,0,1,1.05.18,2.439,2.439,0,0,1,.753.468l-.268.419a.238.238,0,0,1-.209.127.312.312,0,0,1-.168-.055c-.073-.044-.148-.087-.225-.131a1.568,1.568,0,0,0-.253-.113,2.186,2.186,0,0,0-.312-.079,2.362,2.362,0,0,0-.4-.031,1.707,1.707,0,0,0-.663.124,1.4,1.4,0,0,0-.506.353,1.577,1.577,0,0,0-.322.552,2.157,2.157,0,0,0-.113.72,2.254,2.254,0,0,0,.12.763,1.589,1.589,0,0,0,.336.564,1.444,1.444,0,0,0,.514.352A1.713,1.713,0,0,0,479.685,130.271Z" transform="translate(-404.639 -125.937)" fill="#43403e"/>
      <path id="Caminho_22" data-name="Caminho 22" d="M491.407,130.961h-.926V126h.926Z" transform="translate(-406.879 -125.948)" fill="#43403e"/>
      <path id="Caminho_23" data-name="Caminho 23" d="M504.114,130.961H503.4a.313.313,0,0,1-.2-.06.342.342,0,0,1-.112-.15l-.37-1.011h-2.053l-.37,1.011a.331.331,0,0,1-.108.145.306.306,0,0,1-.2.065h-.717L501.224,126h.943Zm-3.21-1.872h1.581l-.6-1.65c-.027-.073-.058-.16-.091-.259s-.066-.207-.1-.324c-.032.117-.063.225-.094.325s-.062.189-.091.264Z" transform="translate(-408.353 -125.948)" fill="#43403e"/>
    </g>
    <g id="Grupo_182" data-name="Grupo 182" transform="translate(379.294 91.066)">
      <path id="Caminho_24" data-name="Caminho 24" d="M400.117,98.185H394.6c-1.277,0-1.739.434-1.739,1.847v2.445H399.9a.545.545,0,0,1,.544.544V105.6a.545.545,0,0,1-.544.543h-7.036v7.932a.545.545,0,0,1-.543.544h-3.532a.545.545,0,0,1-.544-.544V100.032c0-4.944,3.124-5.813,6.628-5.813a31.622,31.622,0,0,1,5.243.353c.38.054.544.191.544.544v2.526A.545.545,0,0,1,400.117,98.185Z" transform="translate(-388.246 -94.192)" fill="#292624"/>
      <path id="Caminho_25" data-name="Caminho 25" d="M415.119,114.859c-4.482,0-8.041-2.418-8.041-8.721v-3.232c0-6.3,3.558-8.721,8.041-8.721s8.041,2.418,8.041,8.721v3.232C423.159,112.441,419.6,114.859,415.119,114.859Zm3.369-11.953c0-3.26-1.086-4.645-3.369-4.645s-3.341,1.385-3.341,4.645v3.232c0,3.26,1.06,4.645,3.341,4.645s3.369-1.385,3.369-4.645Z" transform="translate(-391.403 -94.186)" fill="#292624"/>
      <path id="Caminho_26" data-name="Caminho 26" d="M446.252,114.615H442.1c-.3,0-.408-.272-.543-.544l-3.64-6.873-.3.027c-.571,0-1.413-.054-1.929-.054v6.9a.545.545,0,0,1-.544.544H431.61a.545.545,0,0,1-.544-.544V95.843c0-.924.38-1.168,1.223-1.3a42.886,42.886,0,0,1,5.514-.354c4.618,0,8.177,1.549,8.177,6.357v.354a5.476,5.476,0,0,1-3.5,5.433l4.1,7.66a.713.713,0,0,1,.082.3C446.659,114.479,446.55,114.615,446.252,114.615Zm-4.89-14.072c0-1.657-1.276-2.417-3.558-2.417-.38,0-1.793.054-2.118.082v5.216c.3.027,1.63.054,1.929.054,2.852,0,3.748-.733,3.748-2.58Z" transform="translate(-395.424 -94.186)" fill="#292624"/>
      <path id="Caminho_27" data-name="Caminho 27" d="M465.417,98.311h-4.4v15.81a.545.545,0,0,1-.544.544h-3.558a.545.545,0,0,1-.544-.544V98.311h-4.428a.522.522,0,0,1-.544-.516V95a.522.522,0,0,1,.544-.516h13.474a.546.546,0,0,1,.57.516v2.8A.546.546,0,0,1,465.417,98.311Z" transform="translate(-398.833 -94.235)" fill="#292624"/>
      <path id="Caminho_28" data-name="Caminho 28" d="M483.7,114.506a32.025,32.025,0,0,1-5.27.354c-3.5,0-6.6-.9-6.6-5.841V100c0-4.944,3.124-5.814,6.628-5.814a31.489,31.489,0,0,1,5.243.354c.38.054.544.19.544.543v2.526a.545.545,0,0,1-.544.544h-5.514c-1.277,0-1.739.434-1.739,1.848v2.471h7.036a.545.545,0,0,1,.543.544V105.6a.544.544,0,0,1-.543.543h-7.036v2.88c0,1.413.462,1.847,1.739,1.847H483.7a.545.545,0,0,1,.544.544v2.526C484.246,114.288,484.082,114.451,483.7,114.506Z" transform="translate(-402.258 -94.186)" fill="#292624"/>
      <path id="Caminho_29" data-name="Caminho 29" d="M496.872,114.859a20.184,20.184,0,0,1-5.135-.6c-.271-.082-.543-.245-.543-.544v-2.662a.451.451,0,0,1,.489-.516h.082c1.114.108,4.1.325,5.161.325,1.874,0,2.418-.6,2.418-1.9,0-.788-.38-1.223-1.793-2.065l-3.749-2.227c-2.526-1.494-3.205-3.205-3.205-5.189,0-2.988,1.684-5.3,6.954-5.3a30.015,30.015,0,0,1,5.759.6.478.478,0,0,1,.407.489v2.743a.414.414,0,0,1-.462.462H503.2c-.761-.054-3.911-.3-5.759-.3-1.548,0-2.119.462-2.119,1.44,0,.76.354,1.114,1.82,1.9l3.478,1.874c2.825,1.522,3.667,3.314,3.667,5.514C504.288,111.79,502.386,114.859,496.872,114.859Z" transform="translate(-405.404 -94.186)" fill="#292624"/>
    </g>
  </g>
</svg>
